<?xml version="1.0" ?><!DOCTYPE svg  PUBLIC '-//W3C//DTD SVG 1.1//EN'  'http://www.w3.org/Graphics/SVG/1.1/DTD/svg11.dtd'><svg enable-background="new 0 0 96 96" height="96px" id="paper_stack" version="1.1" viewBox="0 0 96 96" width="96px" xml:space="preserve" xmlns="http://www.w3.org/2000/svg" xmlns:xlink="http://www.w3.org/1999/xlink"><path d="M48,4C23.7,4,4,23.7,4,48c0,24.301,19.7,44,44,44c24.301,0,44-19.699,44-44C92,23.7,72.301,4,48,4z M52,83.773V72  c0-2.209-1.791-4-4-4s-4,1.791-4,4v11.773C27.315,81.928,14.072,68.685,12.227,52H24c2.209,0,4-1.791,4-4s-1.791-4-4-4H12.227  C14.072,27.315,27.315,14.072,44,12.227V24c0,2.209,1.791,4,4,4s4-1.791,4-4V12.227C68.685,14.072,81.928,27.315,83.773,44H72  c-2.209,0-4,1.791-4,4s1.791,4,4,4h11.773C81.928,68.685,68.685,81.928,52,83.773z"/></svg>